%TF.GenerationSoftware,KiCad,Pcbnew,5.0.2-bee76a0~70~ubuntu18.04.1*%
%TF.CreationDate,2019-02-17T17:10:16-03:00*%
%TF.ProjectId,charlieplex-display-pcb-r00,63686172-6c69-4657-906c-65782d646973,rev?*%
%TF.SameCoordinates,Original*%
%TF.FileFunction,Legend,Top*%
%TF.FilePolarity,Positive*%
%FSLAX46Y46*%
G04 Gerber Fmt 4.6, Leading zero omitted, Abs format (unit mm)*
G04 Created by KiCad (PCBNEW 5.0.2-bee76a0~70~ubuntu18.04.1) date dom 17 fev 2019 17:10:16 -03*
%MOMM*%
%LPD*%
G01*
G04 APERTURE LIST*
%ADD10C,0.200000*%
%ADD11C,0.300000*%
%ADD12C,0.250000*%
%ADD13C,0.120000*%
%ADD14C,0.150000*%
G04 APERTURE END LIST*
D10*
X54935428Y-71929380D02*
X54935428Y-71167476D01*
X55316380Y-71548428D02*
X54554476Y-71548428D01*
X54411619Y-70738904D02*
X54364000Y-70691285D01*
X54316380Y-70596047D01*
X54316380Y-70357952D01*
X54364000Y-70262714D01*
X54411619Y-70215095D01*
X54506857Y-70167476D01*
X54602095Y-70167476D01*
X54744952Y-70215095D01*
X55316380Y-70786523D01*
X55316380Y-70167476D01*
X54935428Y-69738904D02*
X54935428Y-68977000D01*
X54649714Y-68072238D02*
X55316380Y-68072238D01*
X54268761Y-68310333D02*
X54983047Y-68548428D01*
X54983047Y-67929380D01*
X45291619Y-57475428D02*
X46053523Y-57475428D01*
X45672571Y-57856380D02*
X45672571Y-57094476D01*
X46958285Y-57189714D02*
X46958285Y-57856380D01*
X46720190Y-56808761D02*
X46482095Y-57523047D01*
X47101142Y-57523047D01*
X47482095Y-57475428D02*
X48244000Y-57475428D01*
X48672571Y-56951619D02*
X48720190Y-56904000D01*
X48815428Y-56856380D01*
X49053523Y-56856380D01*
X49148761Y-56904000D01*
X49196380Y-56951619D01*
X49244000Y-57046857D01*
X49244000Y-57142095D01*
X49196380Y-57284952D01*
X48624952Y-57856380D01*
X49244000Y-57856380D01*
X42243619Y-54046428D02*
X43005523Y-54046428D01*
X42624571Y-54427380D02*
X42624571Y-53665476D01*
X43434095Y-53522619D02*
X43481714Y-53475000D01*
X43576952Y-53427380D01*
X43815047Y-53427380D01*
X43910285Y-53475000D01*
X43957904Y-53522619D01*
X44005523Y-53617857D01*
X44005523Y-53713095D01*
X43957904Y-53855952D01*
X43386476Y-54427380D01*
X44005523Y-54427380D01*
X44434095Y-54046428D02*
X45196000Y-54046428D01*
X46196000Y-54427380D02*
X45624571Y-54427380D01*
X45910285Y-54427380D02*
X45910285Y-53427380D01*
X45815047Y-53570238D01*
X45719809Y-53665476D01*
X45624571Y-53713095D01*
X40465619Y-64587428D02*
X41227523Y-64587428D01*
X40846571Y-64968380D02*
X40846571Y-64206476D01*
X41608476Y-63968380D02*
X42227523Y-63968380D01*
X41894190Y-64349333D01*
X42037047Y-64349333D01*
X42132285Y-64396952D01*
X42179904Y-64444571D01*
X42227523Y-64539809D01*
X42227523Y-64777904D01*
X42179904Y-64873142D01*
X42132285Y-64920761D01*
X42037047Y-64968380D01*
X41751333Y-64968380D01*
X41656095Y-64920761D01*
X41608476Y-64873142D01*
X42656095Y-64587428D02*
X43418000Y-64587428D01*
X43846571Y-64063619D02*
X43894190Y-64016000D01*
X43989428Y-63968380D01*
X44227523Y-63968380D01*
X44322761Y-64016000D01*
X44370380Y-64063619D01*
X44418000Y-64158857D01*
X44418000Y-64254095D01*
X44370380Y-64396952D01*
X43798952Y-64968380D01*
X44418000Y-64968380D01*
X47323619Y-69159428D02*
X48085523Y-69159428D01*
X47704571Y-69540380D02*
X47704571Y-68778476D01*
X48990285Y-68873714D02*
X48990285Y-69540380D01*
X48752190Y-68492761D02*
X48514095Y-69207047D01*
X49133142Y-69207047D01*
X49514095Y-69159428D02*
X50276000Y-69159428D01*
X50656952Y-68540380D02*
X51276000Y-68540380D01*
X50942666Y-68921333D01*
X51085523Y-68921333D01*
X51180761Y-68968952D01*
X51228380Y-69016571D01*
X51276000Y-69111809D01*
X51276000Y-69349904D01*
X51228380Y-69445142D01*
X51180761Y-69492761D01*
X51085523Y-69540380D01*
X50799809Y-69540380D01*
X50704571Y-69492761D01*
X50656952Y-69445142D01*
X53673619Y-61920428D02*
X54435523Y-61920428D01*
X54054571Y-62301380D02*
X54054571Y-61539476D01*
X55435523Y-62301380D02*
X54864095Y-62301380D01*
X55149809Y-62301380D02*
X55149809Y-61301380D01*
X55054571Y-61444238D01*
X54959333Y-61539476D01*
X54864095Y-61587095D01*
X55864095Y-61920428D02*
X56626000Y-61920428D01*
X57054571Y-61396619D02*
X57102190Y-61349000D01*
X57197428Y-61301380D01*
X57435523Y-61301380D01*
X57530761Y-61349000D01*
X57578380Y-61396619D01*
X57626000Y-61491857D01*
X57626000Y-61587095D01*
X57578380Y-61729952D01*
X57006952Y-62301380D01*
X57626000Y-62301380D01*
X48085619Y-54554428D02*
X48847523Y-54554428D01*
X48466571Y-54935380D02*
X48466571Y-54173476D01*
X49276095Y-54030619D02*
X49323714Y-53983000D01*
X49418952Y-53935380D01*
X49657047Y-53935380D01*
X49752285Y-53983000D01*
X49799904Y-54030619D01*
X49847523Y-54125857D01*
X49847523Y-54221095D01*
X49799904Y-54363952D01*
X49228476Y-54935380D01*
X49847523Y-54935380D01*
X50276095Y-54554428D02*
X51038000Y-54554428D01*
X51418952Y-53935380D02*
X52038000Y-53935380D01*
X51704666Y-54316333D01*
X51847523Y-54316333D01*
X51942761Y-54363952D01*
X51990380Y-54411571D01*
X52038000Y-54506809D01*
X52038000Y-54744904D01*
X51990380Y-54840142D01*
X51942761Y-54887761D01*
X51847523Y-54935380D01*
X51561809Y-54935380D01*
X51466571Y-54887761D01*
X51418952Y-54840142D01*
X41227619Y-49855428D02*
X41989523Y-49855428D01*
X41608571Y-50236380D02*
X41608571Y-49474476D01*
X42370476Y-49236380D02*
X42989523Y-49236380D01*
X42656190Y-49617333D01*
X42799047Y-49617333D01*
X42894285Y-49664952D01*
X42941904Y-49712571D01*
X42989523Y-49807809D01*
X42989523Y-50045904D01*
X42941904Y-50141142D01*
X42894285Y-50188761D01*
X42799047Y-50236380D01*
X42513333Y-50236380D01*
X42418095Y-50188761D01*
X42370476Y-50141142D01*
X43418095Y-49855428D02*
X44180000Y-49855428D01*
X45084761Y-49569714D02*
X45084761Y-50236380D01*
X44846666Y-49188761D02*
X44608571Y-49903047D01*
X45227619Y-49903047D01*
D11*
X57308714Y-53272571D02*
X57308714Y-54272571D01*
X56951571Y-52701142D02*
X56594428Y-53772571D01*
X57523000Y-53772571D01*
X56650000Y-50232571D02*
X57578571Y-50232571D01*
X57078571Y-50804000D01*
X57292857Y-50804000D01*
X57435714Y-50875428D01*
X57507142Y-50946857D01*
X57578571Y-51089714D01*
X57578571Y-51446857D01*
X57507142Y-51589714D01*
X57435714Y-51661142D01*
X57292857Y-51732571D01*
X56864285Y-51732571D01*
X56721428Y-51661142D01*
X56650000Y-51589714D01*
X56594428Y-47708428D02*
X56665857Y-47637000D01*
X56808714Y-47565571D01*
X57165857Y-47565571D01*
X57308714Y-47637000D01*
X57380142Y-47708428D01*
X57451571Y-47851285D01*
X57451571Y-47994142D01*
X57380142Y-48208428D01*
X56523000Y-49065571D01*
X57451571Y-49065571D01*
X57705571Y-46779571D02*
X56848428Y-46779571D01*
X57277000Y-46779571D02*
X57277000Y-45279571D01*
X57134142Y-45493857D01*
X56991285Y-45636714D01*
X56848428Y-45708142D01*
D10*
X39974000Y-73096380D02*
X39974000Y-72096380D01*
X40212095Y-72096380D01*
X40354952Y-72144000D01*
X40450190Y-72239238D01*
X40497809Y-72334476D01*
X40545428Y-72524952D01*
X40545428Y-72667809D01*
X40497809Y-72858285D01*
X40450190Y-72953523D01*
X40354952Y-73048761D01*
X40212095Y-73096380D01*
X39974000Y-73096380D01*
X40974000Y-73096380D02*
X40974000Y-72429714D01*
X40974000Y-72096380D02*
X40926380Y-72144000D01*
X40974000Y-72191619D01*
X41021619Y-72144000D01*
X40974000Y-72096380D01*
X40974000Y-72191619D01*
X41402571Y-73048761D02*
X41497809Y-73096380D01*
X41688285Y-73096380D01*
X41783523Y-73048761D01*
X41831142Y-72953523D01*
X41831142Y-72905904D01*
X41783523Y-72810666D01*
X41688285Y-72763047D01*
X41545428Y-72763047D01*
X41450190Y-72715428D01*
X41402571Y-72620190D01*
X41402571Y-72572571D01*
X41450190Y-72477333D01*
X41545428Y-72429714D01*
X41688285Y-72429714D01*
X41783523Y-72477333D01*
X42259714Y-72429714D02*
X42259714Y-73429714D01*
X42259714Y-72477333D02*
X42354952Y-72429714D01*
X42545428Y-72429714D01*
X42640666Y-72477333D01*
X42688285Y-72524952D01*
X42735904Y-72620190D01*
X42735904Y-72905904D01*
X42688285Y-73001142D01*
X42640666Y-73048761D01*
X42545428Y-73096380D01*
X42354952Y-73096380D01*
X42259714Y-73048761D01*
X43307333Y-73096380D02*
X43212095Y-73048761D01*
X43164476Y-72953523D01*
X43164476Y-72096380D01*
X44116857Y-73096380D02*
X44116857Y-72572571D01*
X44069238Y-72477333D01*
X43974000Y-72429714D01*
X43783523Y-72429714D01*
X43688285Y-72477333D01*
X44116857Y-73048761D02*
X44021619Y-73096380D01*
X43783523Y-73096380D01*
X43688285Y-73048761D01*
X43640666Y-72953523D01*
X43640666Y-72858285D01*
X43688285Y-72763047D01*
X43783523Y-72715428D01*
X44021619Y-72715428D01*
X44116857Y-72667809D01*
X44497809Y-72429714D02*
X44735904Y-73096380D01*
X44974000Y-72429714D02*
X44735904Y-73096380D01*
X44640666Y-73334476D01*
X44593047Y-73382095D01*
X44497809Y-73429714D01*
X46593047Y-73096380D02*
X46116857Y-73096380D01*
X46116857Y-72096380D01*
X46926380Y-72572571D02*
X47259714Y-72572571D01*
X47402571Y-73096380D02*
X46926380Y-73096380D01*
X46926380Y-72096380D01*
X47402571Y-72096380D01*
X47831142Y-73096380D02*
X47831142Y-72096380D01*
X48069238Y-72096380D01*
X48212095Y-72144000D01*
X48307333Y-72239238D01*
X48354952Y-72334476D01*
X48402571Y-72524952D01*
X48402571Y-72667809D01*
X48354952Y-72858285D01*
X48307333Y-72953523D01*
X48212095Y-73048761D01*
X48069238Y-73096380D01*
X47831142Y-73096380D01*
X49593047Y-73096380D02*
X49593047Y-72096380D01*
X49926380Y-72810666D01*
X50259714Y-72096380D01*
X50259714Y-73096380D01*
X51164476Y-72429714D02*
X51164476Y-73096380D01*
X50735904Y-72429714D02*
X50735904Y-72953523D01*
X50783523Y-73048761D01*
X50878761Y-73096380D01*
X51021619Y-73096380D01*
X51116857Y-73048761D01*
X51164476Y-73001142D01*
X51545428Y-73096380D02*
X52069238Y-72429714D01*
X51545428Y-72429714D02*
X52069238Y-73096380D01*
D12*
X32567571Y-68809428D02*
X32567571Y-69142761D01*
X33091380Y-69142761D02*
X32091380Y-69142761D01*
X32091380Y-68666571D01*
X33091380Y-68285619D02*
X32424714Y-68285619D01*
X32615190Y-68285619D02*
X32519952Y-68238000D01*
X32472333Y-68190380D01*
X32424714Y-68095142D01*
X32424714Y-67999904D01*
X33091380Y-67666571D02*
X32424714Y-67666571D01*
X32091380Y-67666571D02*
X32139000Y-67714190D01*
X32186619Y-67666571D01*
X32139000Y-67618952D01*
X32091380Y-67666571D01*
X32186619Y-67666571D01*
X32424714Y-67333238D02*
X32424714Y-66952285D01*
X32091380Y-67190380D02*
X32948523Y-67190380D01*
X33043761Y-67142761D01*
X33091380Y-67047523D01*
X33091380Y-66952285D01*
X32424714Y-66714190D02*
X32424714Y-66190380D01*
X33091380Y-66714190D01*
X33091380Y-66190380D01*
X33043761Y-65428476D02*
X33091380Y-65523714D01*
X33091380Y-65714190D01*
X33043761Y-65809428D01*
X32948523Y-65857047D01*
X32567571Y-65857047D01*
X32472333Y-65809428D01*
X32424714Y-65714190D01*
X32424714Y-65523714D01*
X32472333Y-65428476D01*
X32567571Y-65380857D01*
X32662809Y-65380857D01*
X32758047Y-65857047D01*
X32424714Y-64952285D02*
X33091380Y-64952285D01*
X32519952Y-64952285D02*
X32472333Y-64904666D01*
X32424714Y-64809428D01*
X32424714Y-64666571D01*
X32472333Y-64571333D01*
X32567571Y-64523714D01*
X33091380Y-64523714D01*
X33091380Y-63571333D02*
X33091380Y-64047523D01*
X32091380Y-64047523D01*
X33091380Y-62809428D02*
X32567571Y-62809428D01*
X32472333Y-62857047D01*
X32424714Y-62952285D01*
X32424714Y-63142761D01*
X32472333Y-63238000D01*
X33043761Y-62809428D02*
X33091380Y-62904666D01*
X33091380Y-63142761D01*
X33043761Y-63238000D01*
X32948523Y-63285619D01*
X32853285Y-63285619D01*
X32758047Y-63238000D01*
X32710428Y-63142761D01*
X32710428Y-62904666D01*
X32662809Y-62809428D01*
X33091380Y-62333238D02*
X32091380Y-62333238D01*
X32472333Y-62333238D02*
X32424714Y-62238000D01*
X32424714Y-62047523D01*
X32472333Y-61952285D01*
X32519952Y-61904666D01*
X32615190Y-61857047D01*
X32900904Y-61857047D01*
X32996142Y-61904666D01*
X33043761Y-61952285D01*
X33091380Y-62047523D01*
X33091380Y-62238000D01*
X33043761Y-62333238D01*
X32996142Y-61428476D02*
X33043761Y-61380857D01*
X33091380Y-61428476D01*
X33043761Y-61476095D01*
X32996142Y-61428476D01*
X33091380Y-61428476D01*
X33043761Y-60523714D02*
X33091380Y-60618952D01*
X33091380Y-60809428D01*
X33043761Y-60904666D01*
X32996142Y-60952285D01*
X32900904Y-60999904D01*
X32615190Y-60999904D01*
X32519952Y-60952285D01*
X32472333Y-60904666D01*
X32424714Y-60809428D01*
X32424714Y-60618952D01*
X32472333Y-60523714D01*
X33091380Y-59952285D02*
X33043761Y-60047523D01*
X32996142Y-60095142D01*
X32900904Y-60142761D01*
X32615190Y-60142761D01*
X32519952Y-60095142D01*
X32472333Y-60047523D01*
X32424714Y-59952285D01*
X32424714Y-59809428D01*
X32472333Y-59714190D01*
X32519952Y-59666571D01*
X32615190Y-59618952D01*
X32900904Y-59618952D01*
X32996142Y-59666571D01*
X33043761Y-59714190D01*
X33091380Y-59809428D01*
X33091380Y-59952285D01*
X33091380Y-59190380D02*
X32424714Y-59190380D01*
X32519952Y-59190380D02*
X32472333Y-59142761D01*
X32424714Y-59047523D01*
X32424714Y-58904666D01*
X32472333Y-58809428D01*
X32567571Y-58761809D01*
X33091380Y-58761809D01*
X32567571Y-58761809D02*
X32472333Y-58714190D01*
X32424714Y-58618952D01*
X32424714Y-58476095D01*
X32472333Y-58380857D01*
X32567571Y-58333238D01*
X33091380Y-58333238D01*
X32996142Y-57857047D02*
X33043761Y-57809428D01*
X33091380Y-57857047D01*
X33043761Y-57904666D01*
X32996142Y-57857047D01*
X33091380Y-57857047D01*
X33091380Y-57380857D02*
X32091380Y-57380857D01*
X32472333Y-57380857D02*
X32424714Y-57285619D01*
X32424714Y-57095142D01*
X32472333Y-56999904D01*
X32519952Y-56952285D01*
X32615190Y-56904666D01*
X32900904Y-56904666D01*
X32996142Y-56952285D01*
X33043761Y-56999904D01*
X33091380Y-57095142D01*
X33091380Y-57285619D01*
X33043761Y-57380857D01*
X33091380Y-56476095D02*
X32424714Y-56476095D01*
X32615190Y-56476095D02*
X32519952Y-56428476D01*
X32472333Y-56380857D01*
X32424714Y-56285619D01*
X32424714Y-56190380D01*
D10*
X53721000Y-60452000D02*
X38862000Y-60452000D01*
X51816000Y-70231000D02*
X36957000Y-70231000D01*
X36957000Y-70231000D02*
X40640000Y-50546000D01*
X55626000Y-50546000D02*
X40640000Y-50546000D01*
X51816000Y-70231000D02*
X55626000Y-50546000D01*
D13*
X57852000Y-44644000D02*
X59182000Y-44644000D01*
X57852000Y-45974000D02*
X57852000Y-44644000D01*
X57852000Y-47244000D02*
X60512000Y-47244000D01*
X60512000Y-47244000D02*
X60512000Y-54924000D01*
X57852000Y-47244000D02*
X57852000Y-54924000D01*
X57852000Y-54924000D02*
X60512000Y-54924000D01*
X56606000Y-71692000D02*
X56606000Y-71848000D01*
X56606000Y-69376000D02*
X56606000Y-69532000D01*
X59207130Y-71691837D02*
G75*
G02X57125039Y-71692000I-1041130J1079837D01*
G01*
X59207130Y-69532163D02*
G75*
G03X57125039Y-69532000I-1041130J-1079837D01*
G01*
X59838335Y-71690608D02*
G75*
G02X56606000Y-71847516I-1672335J1078608D01*
G01*
X59838335Y-69533392D02*
G75*
G03X56606000Y-69376484I-1672335J-1078608D01*
G01*
X47900335Y-59373392D02*
G75*
G03X44668000Y-59216484I-1672335J-1078608D01*
G01*
X47900335Y-61530608D02*
G75*
G02X44668000Y-61687516I-1672335J1078608D01*
G01*
X47269130Y-59372163D02*
G75*
G03X45187039Y-59372000I-1041130J-1079837D01*
G01*
X47269130Y-61531837D02*
G75*
G02X45187039Y-61532000I-1041130J1079837D01*
G01*
X44668000Y-59216000D02*
X44668000Y-59372000D01*
X44668000Y-61532000D02*
X44668000Y-61688000D01*
X38064000Y-56706000D02*
X38064000Y-56862000D01*
X38064000Y-54390000D02*
X38064000Y-54546000D01*
X40665130Y-56705837D02*
G75*
G02X38583039Y-56706000I-1041130J1079837D01*
G01*
X40665130Y-54546163D02*
G75*
G03X38583039Y-54546000I-1041130J-1079837D01*
G01*
X41296335Y-56704608D02*
G75*
G02X38064000Y-56861516I-1672335J1078608D01*
G01*
X41296335Y-54547392D02*
G75*
G03X38064000Y-54390484I-1672335J-1078608D01*
G01*
X39518335Y-63945392D02*
G75*
G03X36286000Y-63788484I-1672335J-1078608D01*
G01*
X39518335Y-66102608D02*
G75*
G02X36286000Y-66259516I-1672335J1078608D01*
G01*
X38887130Y-63944163D02*
G75*
G03X36805039Y-63944000I-1041130J-1079837D01*
G01*
X38887130Y-66103837D02*
G75*
G02X36805039Y-66104000I-1041130J1079837D01*
G01*
X36286000Y-63788000D02*
X36286000Y-63944000D01*
X36286000Y-66104000D02*
X36286000Y-66260000D01*
X43144000Y-71184000D02*
X43144000Y-71340000D01*
X43144000Y-68868000D02*
X43144000Y-69024000D01*
X45745130Y-71183837D02*
G75*
G02X43663039Y-71184000I-1041130J1079837D01*
G01*
X45745130Y-69024163D02*
G75*
G03X43663039Y-69024000I-1041130J-1079837D01*
G01*
X46376335Y-71182608D02*
G75*
G02X43144000Y-71339516I-1672335J1078608D01*
G01*
X46376335Y-69025392D02*
G75*
G03X43144000Y-68868484I-1672335J-1078608D01*
G01*
X54504335Y-63945392D02*
G75*
G03X51272000Y-63788484I-1672335J-1078608D01*
G01*
X54504335Y-66102608D02*
G75*
G02X51272000Y-66259516I-1672335J1078608D01*
G01*
X53873130Y-63944163D02*
G75*
G03X51791039Y-63944000I-1041130J-1079837D01*
G01*
X53873130Y-66103837D02*
G75*
G02X51791039Y-66104000I-1041130J1079837D01*
G01*
X51272000Y-63788000D02*
X51272000Y-63944000D01*
X51272000Y-66104000D02*
X51272000Y-66260000D01*
X53050000Y-56706000D02*
X53050000Y-56862000D01*
X53050000Y-54390000D02*
X53050000Y-54546000D01*
X55651130Y-56705837D02*
G75*
G02X53569039Y-56706000I-1041130J1079837D01*
G01*
X55651130Y-54546163D02*
G75*
G03X53569039Y-54546000I-1041130J-1079837D01*
G01*
X56282335Y-56704608D02*
G75*
G02X53050000Y-56861516I-1672335J1078608D01*
G01*
X56282335Y-54547392D02*
G75*
G03X53050000Y-54390484I-1672335J-1078608D01*
G01*
X49678335Y-49467392D02*
G75*
G03X46446000Y-49310484I-1672335J-1078608D01*
G01*
X49678335Y-51624608D02*
G75*
G02X46446000Y-51781516I-1672335J1078608D01*
G01*
X49047130Y-49466163D02*
G75*
G03X46965039Y-49466000I-1041130J-1079837D01*
G01*
X49047130Y-51625837D02*
G75*
G02X46965039Y-51626000I-1041130J1079837D01*
G01*
X46446000Y-49310000D02*
X46446000Y-49466000D01*
X46446000Y-51626000D02*
X46446000Y-51782000D01*
X54967000Y-46228000D02*
X54197000Y-46228000D01*
X46887000Y-46228000D02*
X47657000Y-46228000D01*
X54197000Y-44858000D02*
X47657000Y-44858000D01*
X54197000Y-47598000D02*
X54197000Y-44858000D01*
X47657000Y-47598000D02*
X54197000Y-47598000D01*
X47657000Y-44858000D02*
X47657000Y-47598000D01*
X34957000Y-44858000D02*
X34957000Y-47598000D01*
X34957000Y-47598000D02*
X41497000Y-47598000D01*
X41497000Y-47598000D02*
X41497000Y-44858000D01*
X41497000Y-44858000D02*
X34957000Y-44858000D01*
X34187000Y-46228000D02*
X34957000Y-46228000D01*
X42267000Y-46228000D02*
X41497000Y-46228000D01*
X59309000Y-57682000D02*
X59309000Y-58452000D01*
X59309000Y-65762000D02*
X59309000Y-64992000D01*
X57939000Y-58452000D02*
X57939000Y-64992000D01*
X60679000Y-58452000D02*
X57939000Y-58452000D01*
X60679000Y-64992000D02*
X60679000Y-58452000D01*
X57939000Y-64992000D02*
X60679000Y-64992000D01*
X36549000Y-52229000D02*
X33809000Y-52229000D01*
X33809000Y-52229000D02*
X33809000Y-58769000D01*
X33809000Y-58769000D02*
X36549000Y-58769000D01*
X36549000Y-58769000D02*
X36549000Y-52229000D01*
X35179000Y-51459000D02*
X35179000Y-52229000D01*
X35179000Y-59539000D02*
X35179000Y-58769000D01*
D14*
X56689666Y-43902380D02*
X56689666Y-44616666D01*
X56642047Y-44759523D01*
X56546809Y-44854761D01*
X56403952Y-44902380D01*
X56308714Y-44902380D01*
X57689666Y-44902380D02*
X57118238Y-44902380D01*
X57403952Y-44902380D02*
X57403952Y-43902380D01*
X57308714Y-44045238D01*
X57213476Y-44140476D01*
X57118238Y-44188095D01*
X53998904Y-73223380D02*
X53998904Y-72223380D01*
X54237000Y-72223380D01*
X54379857Y-72271000D01*
X54475095Y-72366238D01*
X54522714Y-72461476D01*
X54570333Y-72651952D01*
X54570333Y-72794809D01*
X54522714Y-72985285D01*
X54475095Y-73080523D01*
X54379857Y-73175761D01*
X54237000Y-73223380D01*
X53998904Y-73223380D01*
X55141761Y-72651952D02*
X55046523Y-72604333D01*
X54998904Y-72556714D01*
X54951285Y-72461476D01*
X54951285Y-72413857D01*
X54998904Y-72318619D01*
X55046523Y-72271000D01*
X55141761Y-72223380D01*
X55332238Y-72223380D01*
X55427476Y-72271000D01*
X55475095Y-72318619D01*
X55522714Y-72413857D01*
X55522714Y-72461476D01*
X55475095Y-72556714D01*
X55427476Y-72604333D01*
X55332238Y-72651952D01*
X55141761Y-72651952D01*
X55046523Y-72699571D01*
X54998904Y-72747190D01*
X54951285Y-72842428D01*
X54951285Y-73032904D01*
X54998904Y-73128142D01*
X55046523Y-73175761D01*
X55141761Y-73223380D01*
X55332238Y-73223380D01*
X55427476Y-73175761D01*
X55475095Y-73128142D01*
X55522714Y-73032904D01*
X55522714Y-72842428D01*
X55475095Y-72747190D01*
X55427476Y-72699571D01*
X55332238Y-72651952D01*
X43076904Y-57944380D02*
X43076904Y-56944380D01*
X43315000Y-56944380D01*
X43457857Y-56992000D01*
X43553095Y-57087238D01*
X43600714Y-57182476D01*
X43648333Y-57372952D01*
X43648333Y-57515809D01*
X43600714Y-57706285D01*
X43553095Y-57801523D01*
X43457857Y-57896761D01*
X43315000Y-57944380D01*
X43076904Y-57944380D01*
X43981666Y-56944380D02*
X44648333Y-56944380D01*
X44219761Y-57944380D01*
X40536904Y-52903380D02*
X40536904Y-51903380D01*
X40775000Y-51903380D01*
X40917857Y-51951000D01*
X41013095Y-52046238D01*
X41060714Y-52141476D01*
X41108333Y-52331952D01*
X41108333Y-52474809D01*
X41060714Y-52665285D01*
X41013095Y-52760523D01*
X40917857Y-52855761D01*
X40775000Y-52903380D01*
X40536904Y-52903380D01*
X41965476Y-51903380D02*
X41775000Y-51903380D01*
X41679761Y-51951000D01*
X41632142Y-51998619D01*
X41536904Y-52141476D01*
X41489285Y-52331952D01*
X41489285Y-52712904D01*
X41536904Y-52808142D01*
X41584523Y-52855761D01*
X41679761Y-52903380D01*
X41870238Y-52903380D01*
X41965476Y-52855761D01*
X42013095Y-52808142D01*
X42060714Y-52712904D01*
X42060714Y-52474809D01*
X42013095Y-52379571D01*
X41965476Y-52331952D01*
X41870238Y-52284333D01*
X41679761Y-52284333D01*
X41584523Y-52331952D01*
X41536904Y-52379571D01*
X41489285Y-52474809D01*
X40917904Y-63444380D02*
X40917904Y-62444380D01*
X41156000Y-62444380D01*
X41298857Y-62492000D01*
X41394095Y-62587238D01*
X41441714Y-62682476D01*
X41489333Y-62872952D01*
X41489333Y-63015809D01*
X41441714Y-63206285D01*
X41394095Y-63301523D01*
X41298857Y-63396761D01*
X41156000Y-63444380D01*
X40917904Y-63444380D01*
X42394095Y-62444380D02*
X41917904Y-62444380D01*
X41870285Y-62920571D01*
X41917904Y-62872952D01*
X42013142Y-62825333D01*
X42251238Y-62825333D01*
X42346476Y-62872952D01*
X42394095Y-62920571D01*
X42441714Y-63015809D01*
X42441714Y-63253904D01*
X42394095Y-63349142D01*
X42346476Y-63396761D01*
X42251238Y-63444380D01*
X42013142Y-63444380D01*
X41917904Y-63396761D01*
X41870285Y-63349142D01*
X47648904Y-68143380D02*
X47648904Y-67143380D01*
X47887000Y-67143380D01*
X48029857Y-67191000D01*
X48125095Y-67286238D01*
X48172714Y-67381476D01*
X48220333Y-67571952D01*
X48220333Y-67714809D01*
X48172714Y-67905285D01*
X48125095Y-68000523D01*
X48029857Y-68095761D01*
X47887000Y-68143380D01*
X47648904Y-68143380D01*
X49077476Y-67476714D02*
X49077476Y-68143380D01*
X48839380Y-67095761D02*
X48601285Y-67810047D01*
X49220333Y-67810047D01*
X50696904Y-62516380D02*
X50696904Y-61516380D01*
X50935000Y-61516380D01*
X51077857Y-61564000D01*
X51173095Y-61659238D01*
X51220714Y-61754476D01*
X51268333Y-61944952D01*
X51268333Y-62087809D01*
X51220714Y-62278285D01*
X51173095Y-62373523D01*
X51077857Y-62468761D01*
X50935000Y-62516380D01*
X50696904Y-62516380D01*
X51601666Y-61516380D02*
X52220714Y-61516380D01*
X51887380Y-61897333D01*
X52030238Y-61897333D01*
X52125476Y-61944952D01*
X52173095Y-61992571D01*
X52220714Y-62087809D01*
X52220714Y-62325904D01*
X52173095Y-62421142D01*
X52125476Y-62468761D01*
X52030238Y-62516380D01*
X51744523Y-62516380D01*
X51649285Y-62468761D01*
X51601666Y-62421142D01*
X50442904Y-56332380D02*
X50442904Y-55332380D01*
X50681000Y-55332380D01*
X50823857Y-55380000D01*
X50919095Y-55475238D01*
X50966714Y-55570476D01*
X51014333Y-55760952D01*
X51014333Y-55903809D01*
X50966714Y-56094285D01*
X50919095Y-56189523D01*
X50823857Y-56284761D01*
X50681000Y-56332380D01*
X50442904Y-56332380D01*
X51395285Y-55427619D02*
X51442904Y-55380000D01*
X51538142Y-55332380D01*
X51776238Y-55332380D01*
X51871476Y-55380000D01*
X51919095Y-55427619D01*
X51966714Y-55522857D01*
X51966714Y-55618095D01*
X51919095Y-55760952D01*
X51347666Y-56332380D01*
X51966714Y-56332380D01*
X43838904Y-48839380D02*
X43838904Y-47839380D01*
X44077000Y-47839380D01*
X44219857Y-47887000D01*
X44315095Y-47982238D01*
X44362714Y-48077476D01*
X44410333Y-48267952D01*
X44410333Y-48410809D01*
X44362714Y-48601285D01*
X44315095Y-48696523D01*
X44219857Y-48791761D01*
X44077000Y-48839380D01*
X43838904Y-48839380D01*
X45362714Y-48839380D02*
X44791285Y-48839380D01*
X45077000Y-48839380D02*
X45077000Y-47839380D01*
X44981761Y-47982238D01*
X44886523Y-48077476D01*
X44791285Y-48125095D01*
X51776333Y-48966380D02*
X51443000Y-48490190D01*
X51204904Y-48966380D02*
X51204904Y-47966380D01*
X51585857Y-47966380D01*
X51681095Y-48014000D01*
X51728714Y-48061619D01*
X51776333Y-48156857D01*
X51776333Y-48299714D01*
X51728714Y-48394952D01*
X51681095Y-48442571D01*
X51585857Y-48490190D01*
X51204904Y-48490190D01*
X52633476Y-48299714D02*
X52633476Y-48966380D01*
X52395380Y-47918761D02*
X52157285Y-48633047D01*
X52776333Y-48633047D01*
X34123333Y-48966380D02*
X33790000Y-48490190D01*
X33551904Y-48966380D02*
X33551904Y-47966380D01*
X33932857Y-47966380D01*
X34028095Y-48014000D01*
X34075714Y-48061619D01*
X34123333Y-48156857D01*
X34123333Y-48299714D01*
X34075714Y-48394952D01*
X34028095Y-48442571D01*
X33932857Y-48490190D01*
X33551904Y-48490190D01*
X34456666Y-47966380D02*
X35075714Y-47966380D01*
X34742380Y-48347333D01*
X34885238Y-48347333D01*
X34980476Y-48394952D01*
X35028095Y-48442571D01*
X35075714Y-48537809D01*
X35075714Y-48775904D01*
X35028095Y-48871142D01*
X34980476Y-48918761D01*
X34885238Y-48966380D01*
X34599523Y-48966380D01*
X34504285Y-48918761D01*
X34456666Y-48871142D01*
X56602333Y-67254380D02*
X56269000Y-66778190D01*
X56030904Y-67254380D02*
X56030904Y-66254380D01*
X56411857Y-66254380D01*
X56507095Y-66302000D01*
X56554714Y-66349619D01*
X56602333Y-66444857D01*
X56602333Y-66587714D01*
X56554714Y-66682952D01*
X56507095Y-66730571D01*
X56411857Y-66778190D01*
X56030904Y-66778190D01*
X56983285Y-66349619D02*
X57030904Y-66302000D01*
X57126142Y-66254380D01*
X57364238Y-66254380D01*
X57459476Y-66302000D01*
X57507095Y-66349619D01*
X57554714Y-66444857D01*
X57554714Y-66540095D01*
X57507095Y-66682952D01*
X56935666Y-67254380D01*
X57554714Y-67254380D01*
X32599333Y-50998380D02*
X32266000Y-50522190D01*
X32027904Y-50998380D02*
X32027904Y-49998380D01*
X32408857Y-49998380D01*
X32504095Y-50046000D01*
X32551714Y-50093619D01*
X32599333Y-50188857D01*
X32599333Y-50331714D01*
X32551714Y-50426952D01*
X32504095Y-50474571D01*
X32408857Y-50522190D01*
X32027904Y-50522190D01*
X33551714Y-50998380D02*
X32980285Y-50998380D01*
X33266000Y-50998380D02*
X33266000Y-49998380D01*
X33170761Y-50141238D01*
X33075523Y-50236476D01*
X32980285Y-50284095D01*
M02*
