M48
;DRILL file {KiCad 5.0.2-bee76a0~70~ubuntu18.04.1} date dom 17 fev 2019 17:10:21 -03
;FORMAT={3:3/ absolute / metric / suppress leading zeros}
FMAT,2
METRIC,TZ
T1C0.400
T2C0.800
T3C0.900
T4C1.000
T5C3.300
%
G90
G05
T1
X34163Y-71247
X34163Y-71247
T2
X59309Y-56642
X59309Y-66802
X33147Y-46228
X43307Y-46228
X45847Y-46228
X56007Y-46228
X35179Y-50419
X35179Y-60579
T3
X46736Y-50546
X49276Y-50546
X38354Y-55626
X40894Y-55626
X51562Y-65024
X54102Y-65024
X44958Y-60452
X47498Y-60452
X53340Y-55626
X55880Y-55626
X43434Y-70104
X45974Y-70104
X56896Y-70612
X59436Y-70612
X36576Y-65024
X39116Y-65024
T4
X59182Y-45974
X59182Y-48514
X59182Y-51054
X59182Y-53594
T5
X33909Y-71247
X54229Y-51054
T0
M30
