%TF.GenerationSoftware,KiCad,Pcbnew,5.0.2-bee76a0~70~ubuntu18.04.1*%
%TF.CreationDate,2019-02-17T17:10:16-03:00*%
%TF.ProjectId,charlieplex-display-pcb-r00,63686172-6c69-4657-906c-65782d646973,rev?*%
%TF.SameCoordinates,Original*%
%TF.FileFunction,Copper,L1,Top*%
%TF.FilePolarity,Positive*%
%FSLAX46Y46*%
G04 Gerber Fmt 4.6, Leading zero omitted, Abs format (unit mm)*
G04 Created by KiCad (PCBNEW 5.0.2-bee76a0~70~ubuntu18.04.1) date dom 17 fev 2019 17:10:16 -03*
%MOMM*%
%LPD*%
G01*
G04 APERTURE LIST*
%ADD10O,1.700000X1.700000*%
%ADD11R,1.700000X1.700000*%
%ADD12C,1.800000*%
%ADD13R,1.800000X1.800000*%
%ADD14O,1.600000X1.600000*%
%ADD15C,1.600000*%
%ADD16C,0.800000*%
%ADD17C,3.500000*%
%ADD18C,1.000000*%
G04 APERTURE END LIST*
D10*
X59182000Y-53594000D03*
X59182000Y-51054000D03*
X59182000Y-48514000D03*
D11*
X59182000Y-45974000D03*
D12*
X59436000Y-70612000D03*
D13*
X56896000Y-70612000D03*
X44958000Y-60452000D03*
D12*
X47498000Y-60452000D03*
X40894000Y-55626000D03*
D13*
X38354000Y-55626000D03*
X36576000Y-65024000D03*
D12*
X39116000Y-65024000D03*
X45974000Y-70104000D03*
D13*
X43434000Y-70104000D03*
X51562000Y-65024000D03*
D12*
X54102000Y-65024000D03*
X55880000Y-55626000D03*
D13*
X53340000Y-55626000D03*
X46736000Y-50546000D03*
D12*
X49276000Y-50546000D03*
D14*
X56007000Y-46228000D03*
D15*
X45847000Y-46228000D03*
X33147000Y-46228000D03*
D14*
X43307000Y-46228000D03*
X59309000Y-56642000D03*
D15*
X59309000Y-66802000D03*
X35179000Y-50419000D03*
D14*
X35179000Y-60579000D03*
D16*
X34163000Y-71247000D03*
X34163000Y-71247000D03*
D17*
X33909000Y-71247000D03*
X54229000Y-51054000D03*
D18*
X47498000Y-68580000D02*
X47498000Y-60452000D01*
X45974000Y-70104000D02*
X47498000Y-68580000D01*
X40386000Y-60579000D02*
X35179000Y-60579000D01*
X59182000Y-53594000D02*
X57979919Y-53594000D01*
X53269998Y-53721000D02*
X53015998Y-53467000D01*
X57979919Y-53594000D02*
X57852919Y-53721000D01*
X57852919Y-53721000D02*
X53269998Y-53721000D01*
X47498000Y-53467000D02*
X40386000Y-60579000D01*
X53015998Y-53467000D02*
X47498000Y-53467000D01*
X51562000Y-62147998D02*
X49403000Y-59988998D01*
X49403000Y-59988998D02*
X49403000Y-58801000D01*
X49403000Y-58801000D02*
X48768000Y-58166000D01*
X45344000Y-58166000D02*
X44958000Y-58552000D01*
X44958000Y-58552000D02*
X44958000Y-60452000D01*
X48768000Y-58166000D02*
X45344000Y-58166000D01*
X51562000Y-61216792D02*
X51562000Y-62611000D01*
X55880000Y-56898792D02*
X51562000Y-61216792D01*
X55880000Y-55626000D02*
X55880000Y-56898792D01*
X51562000Y-65024000D02*
X51562000Y-62611000D01*
X51562000Y-62611000D02*
X51562000Y-62147998D01*
X38354000Y-53726000D02*
X38354000Y-55626000D01*
X38994000Y-53086000D02*
X38354000Y-53726000D01*
X40640000Y-53086000D02*
X38994000Y-53086000D01*
X45847000Y-47879000D02*
X40640000Y-53086000D01*
X45847000Y-46228000D02*
X45847000Y-47879000D01*
X36454000Y-55626000D02*
X38354000Y-55626000D01*
X54102000Y-65024000D02*
X54102000Y-69342000D01*
X51181000Y-72263000D02*
X40754998Y-72263000D01*
X40754998Y-72263000D02*
X33147000Y-64655002D01*
X54102000Y-69342000D02*
X51181000Y-72263000D01*
X33147000Y-64655002D02*
X33147000Y-58933000D01*
X33147000Y-58933000D02*
X36454000Y-55626000D01*
M02*
