%TF.GenerationSoftware,KiCad,Pcbnew,5.0.2-bee76a0~70~ubuntu18.04.1*%
%TF.CreationDate,2019-02-17T17:10:16-03:00*%
%TF.ProjectId,charlieplex-display-pcb-r00,63686172-6c69-4657-906c-65782d646973,rev?*%
%TF.SameCoordinates,Original*%
%TF.FileFunction,Soldermask,Top*%
%TF.FilePolarity,Negative*%
%FSLAX46Y46*%
G04 Gerber Fmt 4.6, Leading zero omitted, Abs format (unit mm)*
G04 Created by KiCad (PCBNEW 5.0.2-bee76a0~70~ubuntu18.04.1) date dom 17 fev 2019 17:10:16 -03*
%MOMM*%
%LPD*%
G01*
G04 APERTURE LIST*
%ADD10C,0.100000*%
G04 APERTURE END LIST*
D10*
G36*
X57847000Y-71563000D02*
X55945000Y-71563000D01*
X55945000Y-69661000D01*
X57847000Y-69661000D01*
X57847000Y-71563000D01*
X57847000Y-71563000D01*
G37*
G36*
X59713396Y-69697546D02*
X59886466Y-69769234D01*
X60042230Y-69873312D01*
X60174688Y-70005770D01*
X60278766Y-70161534D01*
X60350454Y-70334604D01*
X60387000Y-70518333D01*
X60387000Y-70705667D01*
X60350454Y-70889396D01*
X60278766Y-71062466D01*
X60174688Y-71218230D01*
X60042230Y-71350688D01*
X59886466Y-71454766D01*
X59713396Y-71526454D01*
X59529667Y-71563000D01*
X59342333Y-71563000D01*
X59158604Y-71526454D01*
X58985534Y-71454766D01*
X58829770Y-71350688D01*
X58697312Y-71218230D01*
X58593234Y-71062466D01*
X58521546Y-70889396D01*
X58485000Y-70705667D01*
X58485000Y-70518333D01*
X58521546Y-70334604D01*
X58593234Y-70161534D01*
X58697312Y-70005770D01*
X58829770Y-69873312D01*
X58985534Y-69769234D01*
X59158604Y-69697546D01*
X59342333Y-69661000D01*
X59529667Y-69661000D01*
X59713396Y-69697546D01*
X59713396Y-69697546D01*
G37*
G36*
X44385000Y-71055000D02*
X42483000Y-71055000D01*
X42483000Y-69153000D01*
X44385000Y-69153000D01*
X44385000Y-71055000D01*
X44385000Y-71055000D01*
G37*
G36*
X46251396Y-69189546D02*
X46424466Y-69261234D01*
X46580230Y-69365312D01*
X46712688Y-69497770D01*
X46816766Y-69653534D01*
X46888454Y-69826604D01*
X46925000Y-70010333D01*
X46925000Y-70197667D01*
X46888454Y-70381396D01*
X46816766Y-70554466D01*
X46712688Y-70710230D01*
X46580230Y-70842688D01*
X46424466Y-70946766D01*
X46251396Y-71018454D01*
X46067667Y-71055000D01*
X45880333Y-71055000D01*
X45696604Y-71018454D01*
X45523534Y-70946766D01*
X45367770Y-70842688D01*
X45235312Y-70710230D01*
X45131234Y-70554466D01*
X45059546Y-70381396D01*
X45023000Y-70197667D01*
X45023000Y-70010333D01*
X45059546Y-69826604D01*
X45131234Y-69653534D01*
X45235312Y-69497770D01*
X45367770Y-69365312D01*
X45523534Y-69261234D01*
X45696604Y-69189546D01*
X45880333Y-69153000D01*
X46067667Y-69153000D01*
X46251396Y-69189546D01*
X46251396Y-69189546D01*
G37*
G36*
X59557228Y-65983703D02*
X59712100Y-66047853D01*
X59851481Y-66140985D01*
X59970015Y-66259519D01*
X60063147Y-66398900D01*
X60127297Y-66553772D01*
X60160000Y-66718184D01*
X60160000Y-66885816D01*
X60127297Y-67050228D01*
X60063147Y-67205100D01*
X59970015Y-67344481D01*
X59851481Y-67463015D01*
X59712100Y-67556147D01*
X59557228Y-67620297D01*
X59392816Y-67653000D01*
X59225184Y-67653000D01*
X59060772Y-67620297D01*
X58905900Y-67556147D01*
X58766519Y-67463015D01*
X58647985Y-67344481D01*
X58554853Y-67205100D01*
X58490703Y-67050228D01*
X58458000Y-66885816D01*
X58458000Y-66718184D01*
X58490703Y-66553772D01*
X58554853Y-66398900D01*
X58647985Y-66259519D01*
X58766519Y-66140985D01*
X58905900Y-66047853D01*
X59060772Y-65983703D01*
X59225184Y-65951000D01*
X59392816Y-65951000D01*
X59557228Y-65983703D01*
X59557228Y-65983703D01*
G37*
G36*
X54379396Y-64109546D02*
X54552466Y-64181234D01*
X54708230Y-64285312D01*
X54840688Y-64417770D01*
X54944766Y-64573534D01*
X55016454Y-64746604D01*
X55053000Y-64930333D01*
X55053000Y-65117667D01*
X55016454Y-65301396D01*
X54944766Y-65474466D01*
X54840688Y-65630230D01*
X54708230Y-65762688D01*
X54552466Y-65866766D01*
X54379396Y-65938454D01*
X54195667Y-65975000D01*
X54008333Y-65975000D01*
X53824604Y-65938454D01*
X53651534Y-65866766D01*
X53495770Y-65762688D01*
X53363312Y-65630230D01*
X53259234Y-65474466D01*
X53187546Y-65301396D01*
X53151000Y-65117667D01*
X53151000Y-64930333D01*
X53187546Y-64746604D01*
X53259234Y-64573534D01*
X53363312Y-64417770D01*
X53495770Y-64285312D01*
X53651534Y-64181234D01*
X53824604Y-64109546D01*
X54008333Y-64073000D01*
X54195667Y-64073000D01*
X54379396Y-64109546D01*
X54379396Y-64109546D01*
G37*
G36*
X52513000Y-65975000D02*
X50611000Y-65975000D01*
X50611000Y-64073000D01*
X52513000Y-64073000D01*
X52513000Y-65975000D01*
X52513000Y-65975000D01*
G37*
G36*
X39393396Y-64109546D02*
X39566466Y-64181234D01*
X39722230Y-64285312D01*
X39854688Y-64417770D01*
X39958766Y-64573534D01*
X40030454Y-64746604D01*
X40067000Y-64930333D01*
X40067000Y-65117667D01*
X40030454Y-65301396D01*
X39958766Y-65474466D01*
X39854688Y-65630230D01*
X39722230Y-65762688D01*
X39566466Y-65866766D01*
X39393396Y-65938454D01*
X39209667Y-65975000D01*
X39022333Y-65975000D01*
X38838604Y-65938454D01*
X38665534Y-65866766D01*
X38509770Y-65762688D01*
X38377312Y-65630230D01*
X38273234Y-65474466D01*
X38201546Y-65301396D01*
X38165000Y-65117667D01*
X38165000Y-64930333D01*
X38201546Y-64746604D01*
X38273234Y-64573534D01*
X38377312Y-64417770D01*
X38509770Y-64285312D01*
X38665534Y-64181234D01*
X38838604Y-64109546D01*
X39022333Y-64073000D01*
X39209667Y-64073000D01*
X39393396Y-64109546D01*
X39393396Y-64109546D01*
G37*
G36*
X37527000Y-65975000D02*
X35625000Y-65975000D01*
X35625000Y-64073000D01*
X37527000Y-64073000D01*
X37527000Y-65975000D01*
X37527000Y-65975000D01*
G37*
G36*
X35345821Y-59740313D02*
X35345824Y-59740314D01*
X35345825Y-59740314D01*
X35506239Y-59788975D01*
X35506241Y-59788976D01*
X35506244Y-59788977D01*
X35654078Y-59867995D01*
X35783659Y-59974341D01*
X35890005Y-60103922D01*
X35969023Y-60251756D01*
X36017687Y-60412179D01*
X36034117Y-60579000D01*
X36017687Y-60745821D01*
X36017686Y-60745824D01*
X36017686Y-60745825D01*
X35970170Y-60902466D01*
X35969023Y-60906244D01*
X35890005Y-61054078D01*
X35783659Y-61183659D01*
X35654078Y-61290005D01*
X35506244Y-61369023D01*
X35506241Y-61369024D01*
X35506239Y-61369025D01*
X35345825Y-61417686D01*
X35345824Y-61417686D01*
X35345821Y-61417687D01*
X35220804Y-61430000D01*
X35137196Y-61430000D01*
X35012179Y-61417687D01*
X35012176Y-61417686D01*
X35012175Y-61417686D01*
X34851761Y-61369025D01*
X34851759Y-61369024D01*
X34851756Y-61369023D01*
X34703922Y-61290005D01*
X34574341Y-61183659D01*
X34467995Y-61054078D01*
X34388977Y-60906244D01*
X34387831Y-60902466D01*
X34340314Y-60745825D01*
X34340314Y-60745824D01*
X34340313Y-60745821D01*
X34323883Y-60579000D01*
X34340313Y-60412179D01*
X34388977Y-60251756D01*
X34467995Y-60103922D01*
X34574341Y-59974341D01*
X34703922Y-59867995D01*
X34851756Y-59788977D01*
X34851759Y-59788976D01*
X34851761Y-59788975D01*
X35012175Y-59740314D01*
X35012176Y-59740314D01*
X35012179Y-59740313D01*
X35137196Y-59728000D01*
X35220804Y-59728000D01*
X35345821Y-59740313D01*
X35345821Y-59740313D01*
G37*
G36*
X47775396Y-59537546D02*
X47948466Y-59609234D01*
X48104230Y-59713312D01*
X48236688Y-59845770D01*
X48340766Y-60001534D01*
X48412454Y-60174604D01*
X48449000Y-60358333D01*
X48449000Y-60545667D01*
X48412454Y-60729396D01*
X48340766Y-60902466D01*
X48236688Y-61058230D01*
X48104230Y-61190688D01*
X47948466Y-61294766D01*
X47775396Y-61366454D01*
X47591667Y-61403000D01*
X47404333Y-61403000D01*
X47220604Y-61366454D01*
X47047534Y-61294766D01*
X46891770Y-61190688D01*
X46759312Y-61058230D01*
X46655234Y-60902466D01*
X46583546Y-60729396D01*
X46547000Y-60545667D01*
X46547000Y-60358333D01*
X46583546Y-60174604D01*
X46655234Y-60001534D01*
X46759312Y-59845770D01*
X46891770Y-59713312D01*
X47047534Y-59609234D01*
X47220604Y-59537546D01*
X47404333Y-59501000D01*
X47591667Y-59501000D01*
X47775396Y-59537546D01*
X47775396Y-59537546D01*
G37*
G36*
X45909000Y-61403000D02*
X44007000Y-61403000D01*
X44007000Y-59501000D01*
X45909000Y-59501000D01*
X45909000Y-61403000D01*
X45909000Y-61403000D01*
G37*
G36*
X59475821Y-55803313D02*
X59475824Y-55803314D01*
X59475825Y-55803314D01*
X59636239Y-55851975D01*
X59636241Y-55851976D01*
X59636244Y-55851977D01*
X59784078Y-55930995D01*
X59913659Y-56037341D01*
X60020005Y-56166922D01*
X60099023Y-56314756D01*
X60099024Y-56314759D01*
X60099025Y-56314761D01*
X60145742Y-56468766D01*
X60147687Y-56475179D01*
X60164117Y-56642000D01*
X60147687Y-56808821D01*
X60099023Y-56969244D01*
X60020005Y-57117078D01*
X59913659Y-57246659D01*
X59784078Y-57353005D01*
X59636244Y-57432023D01*
X59636241Y-57432024D01*
X59636239Y-57432025D01*
X59475825Y-57480686D01*
X59475824Y-57480686D01*
X59475821Y-57480687D01*
X59350804Y-57493000D01*
X59267196Y-57493000D01*
X59142179Y-57480687D01*
X59142176Y-57480686D01*
X59142175Y-57480686D01*
X58981761Y-57432025D01*
X58981759Y-57432024D01*
X58981756Y-57432023D01*
X58833922Y-57353005D01*
X58704341Y-57246659D01*
X58597995Y-57117078D01*
X58518977Y-56969244D01*
X58470313Y-56808821D01*
X58453883Y-56642000D01*
X58470313Y-56475179D01*
X58472258Y-56468766D01*
X58518975Y-56314761D01*
X58518976Y-56314759D01*
X58518977Y-56314756D01*
X58597995Y-56166922D01*
X58704341Y-56037341D01*
X58833922Y-55930995D01*
X58981756Y-55851977D01*
X58981759Y-55851976D01*
X58981761Y-55851975D01*
X59142175Y-55803314D01*
X59142176Y-55803314D01*
X59142179Y-55803313D01*
X59267196Y-55791000D01*
X59350804Y-55791000D01*
X59475821Y-55803313D01*
X59475821Y-55803313D01*
G37*
G36*
X54291000Y-56577000D02*
X52389000Y-56577000D01*
X52389000Y-54675000D01*
X54291000Y-54675000D01*
X54291000Y-56577000D01*
X54291000Y-56577000D01*
G37*
G36*
X41171396Y-54711546D02*
X41344466Y-54783234D01*
X41500230Y-54887312D01*
X41632688Y-55019770D01*
X41736766Y-55175534D01*
X41808454Y-55348604D01*
X41845000Y-55532333D01*
X41845000Y-55719667D01*
X41808454Y-55903396D01*
X41736766Y-56076466D01*
X41632688Y-56232230D01*
X41500230Y-56364688D01*
X41344466Y-56468766D01*
X41171396Y-56540454D01*
X40987667Y-56577000D01*
X40800333Y-56577000D01*
X40616604Y-56540454D01*
X40443534Y-56468766D01*
X40287770Y-56364688D01*
X40155312Y-56232230D01*
X40051234Y-56076466D01*
X39979546Y-55903396D01*
X39943000Y-55719667D01*
X39943000Y-55532333D01*
X39979546Y-55348604D01*
X40051234Y-55175534D01*
X40155312Y-55019770D01*
X40287770Y-54887312D01*
X40443534Y-54783234D01*
X40616604Y-54711546D01*
X40800333Y-54675000D01*
X40987667Y-54675000D01*
X41171396Y-54711546D01*
X41171396Y-54711546D01*
G37*
G36*
X56157396Y-54711546D02*
X56330466Y-54783234D01*
X56486230Y-54887312D01*
X56618688Y-55019770D01*
X56722766Y-55175534D01*
X56794454Y-55348604D01*
X56831000Y-55532333D01*
X56831000Y-55719667D01*
X56794454Y-55903396D01*
X56722766Y-56076466D01*
X56618688Y-56232230D01*
X56486230Y-56364688D01*
X56330466Y-56468766D01*
X56157396Y-56540454D01*
X55973667Y-56577000D01*
X55786333Y-56577000D01*
X55602604Y-56540454D01*
X55429534Y-56468766D01*
X55273770Y-56364688D01*
X55141312Y-56232230D01*
X55037234Y-56076466D01*
X54965546Y-55903396D01*
X54929000Y-55719667D01*
X54929000Y-55532333D01*
X54965546Y-55348604D01*
X55037234Y-55175534D01*
X55141312Y-55019770D01*
X55273770Y-54887312D01*
X55429534Y-54783234D01*
X55602604Y-54711546D01*
X55786333Y-54675000D01*
X55973667Y-54675000D01*
X56157396Y-54711546D01*
X56157396Y-54711546D01*
G37*
G36*
X39305000Y-56577000D02*
X37403000Y-56577000D01*
X37403000Y-54675000D01*
X39305000Y-54675000D01*
X39305000Y-56577000D01*
X39305000Y-56577000D01*
G37*
G36*
X59292442Y-52699518D02*
X59358627Y-52706037D01*
X59471853Y-52740384D01*
X59528467Y-52757557D01*
X59667087Y-52831652D01*
X59684991Y-52841222D01*
X59720729Y-52870552D01*
X59822186Y-52953814D01*
X59905448Y-53055271D01*
X59934778Y-53091009D01*
X59934779Y-53091011D01*
X60018443Y-53247533D01*
X60018443Y-53247534D01*
X60069963Y-53417373D01*
X60087359Y-53594000D01*
X60069963Y-53770627D01*
X60035616Y-53883853D01*
X60018443Y-53940467D01*
X59944348Y-54079087D01*
X59934778Y-54096991D01*
X59905448Y-54132729D01*
X59822186Y-54234186D01*
X59720729Y-54317448D01*
X59684991Y-54346778D01*
X59684989Y-54346779D01*
X59528467Y-54430443D01*
X59471853Y-54447616D01*
X59358627Y-54481963D01*
X59292443Y-54488481D01*
X59226260Y-54495000D01*
X59137740Y-54495000D01*
X59071557Y-54488481D01*
X59005373Y-54481963D01*
X58892147Y-54447616D01*
X58835533Y-54430443D01*
X58679011Y-54346779D01*
X58679009Y-54346778D01*
X58643271Y-54317448D01*
X58541814Y-54234186D01*
X58458552Y-54132729D01*
X58429222Y-54096991D01*
X58419652Y-54079087D01*
X58345557Y-53940467D01*
X58328384Y-53883853D01*
X58294037Y-53770627D01*
X58276641Y-53594000D01*
X58294037Y-53417373D01*
X58345557Y-53247534D01*
X58345557Y-53247533D01*
X58429221Y-53091011D01*
X58429222Y-53091009D01*
X58458552Y-53055271D01*
X58541814Y-52953814D01*
X58643271Y-52870552D01*
X58679009Y-52841222D01*
X58696913Y-52831652D01*
X58835533Y-52757557D01*
X58892147Y-52740384D01*
X59005373Y-52706037D01*
X59071558Y-52699518D01*
X59137740Y-52693000D01*
X59226260Y-52693000D01*
X59292442Y-52699518D01*
X59292442Y-52699518D01*
G37*
G36*
X59292443Y-50159519D02*
X59358627Y-50166037D01*
X59471853Y-50200384D01*
X59528467Y-50217557D01*
X59667087Y-50291652D01*
X59684991Y-50301222D01*
X59720729Y-50330552D01*
X59822186Y-50413814D01*
X59895227Y-50502816D01*
X59934778Y-50551009D01*
X59934779Y-50551011D01*
X60018443Y-50707533D01*
X60018443Y-50707534D01*
X60069963Y-50877373D01*
X60087359Y-51054000D01*
X60069963Y-51230627D01*
X60053563Y-51284690D01*
X60018443Y-51400467D01*
X59966844Y-51497000D01*
X59934778Y-51556991D01*
X59905448Y-51592729D01*
X59822186Y-51694186D01*
X59720729Y-51777448D01*
X59684991Y-51806778D01*
X59684989Y-51806779D01*
X59528467Y-51890443D01*
X59471853Y-51907616D01*
X59358627Y-51941963D01*
X59292442Y-51948482D01*
X59226260Y-51955000D01*
X59137740Y-51955000D01*
X59071558Y-51948482D01*
X59005373Y-51941963D01*
X58892147Y-51907616D01*
X58835533Y-51890443D01*
X58679011Y-51806779D01*
X58679009Y-51806778D01*
X58643271Y-51777448D01*
X58541814Y-51694186D01*
X58458552Y-51592729D01*
X58429222Y-51556991D01*
X58397156Y-51497000D01*
X58345557Y-51400467D01*
X58310437Y-51284690D01*
X58294037Y-51230627D01*
X58276641Y-51054000D01*
X58294037Y-50877373D01*
X58345557Y-50707534D01*
X58345557Y-50707533D01*
X58429221Y-50551011D01*
X58429222Y-50551009D01*
X58468773Y-50502816D01*
X58541814Y-50413814D01*
X58643271Y-50330552D01*
X58679009Y-50301222D01*
X58696913Y-50291652D01*
X58835533Y-50217557D01*
X58892147Y-50200384D01*
X59005373Y-50166037D01*
X59071558Y-50159518D01*
X59137740Y-50153000D01*
X59226260Y-50153000D01*
X59292443Y-50159519D01*
X59292443Y-50159519D01*
G37*
G36*
X47687000Y-51497000D02*
X45785000Y-51497000D01*
X45785000Y-49595000D01*
X47687000Y-49595000D01*
X47687000Y-51497000D01*
X47687000Y-51497000D01*
G37*
G36*
X49553396Y-49631546D02*
X49726466Y-49703234D01*
X49882230Y-49807312D01*
X50014688Y-49939770D01*
X50118766Y-50095534D01*
X50190454Y-50268604D01*
X50227000Y-50452333D01*
X50227000Y-50639667D01*
X50190454Y-50823396D01*
X50118766Y-50996466D01*
X50014688Y-51152230D01*
X49882230Y-51284688D01*
X49726466Y-51388766D01*
X49553396Y-51460454D01*
X49369667Y-51497000D01*
X49182333Y-51497000D01*
X48998604Y-51460454D01*
X48825534Y-51388766D01*
X48669770Y-51284688D01*
X48537312Y-51152230D01*
X48433234Y-50996466D01*
X48361546Y-50823396D01*
X48325000Y-50639667D01*
X48325000Y-50452333D01*
X48361546Y-50268604D01*
X48433234Y-50095534D01*
X48537312Y-49939770D01*
X48669770Y-49807312D01*
X48825534Y-49703234D01*
X48998604Y-49631546D01*
X49182333Y-49595000D01*
X49369667Y-49595000D01*
X49553396Y-49631546D01*
X49553396Y-49631546D01*
G37*
G36*
X35427228Y-49600703D02*
X35582100Y-49664853D01*
X35721481Y-49757985D01*
X35840015Y-49876519D01*
X35933147Y-50015900D01*
X35997297Y-50170772D01*
X36030000Y-50335184D01*
X36030000Y-50502816D01*
X35997297Y-50667228D01*
X35933147Y-50822100D01*
X35840015Y-50961481D01*
X35721481Y-51080015D01*
X35582100Y-51173147D01*
X35427228Y-51237297D01*
X35262816Y-51270000D01*
X35095184Y-51270000D01*
X34930772Y-51237297D01*
X34775900Y-51173147D01*
X34636519Y-51080015D01*
X34517985Y-50961481D01*
X34424853Y-50822100D01*
X34360703Y-50667228D01*
X34328000Y-50502816D01*
X34328000Y-50335184D01*
X34360703Y-50170772D01*
X34424853Y-50015900D01*
X34517985Y-49876519D01*
X34636519Y-49757985D01*
X34775900Y-49664853D01*
X34930772Y-49600703D01*
X35095184Y-49568000D01*
X35262816Y-49568000D01*
X35427228Y-49600703D01*
X35427228Y-49600703D01*
G37*
G36*
X59292442Y-47619518D02*
X59358627Y-47626037D01*
X59471853Y-47660384D01*
X59528467Y-47677557D01*
X59667087Y-47751652D01*
X59684991Y-47761222D01*
X59720729Y-47790552D01*
X59822186Y-47873814D01*
X59905448Y-47975271D01*
X59934778Y-48011009D01*
X59934779Y-48011011D01*
X60018443Y-48167533D01*
X60018443Y-48167534D01*
X60069963Y-48337373D01*
X60087359Y-48514000D01*
X60069963Y-48690627D01*
X60035616Y-48803853D01*
X60018443Y-48860467D01*
X59944348Y-48999087D01*
X59934778Y-49016991D01*
X59905448Y-49052729D01*
X59822186Y-49154186D01*
X59720729Y-49237448D01*
X59684991Y-49266778D01*
X59684989Y-49266779D01*
X59528467Y-49350443D01*
X59471853Y-49367616D01*
X59358627Y-49401963D01*
X59292442Y-49408482D01*
X59226260Y-49415000D01*
X59137740Y-49415000D01*
X59071558Y-49408482D01*
X59005373Y-49401963D01*
X58892147Y-49367616D01*
X58835533Y-49350443D01*
X58679011Y-49266779D01*
X58679009Y-49266778D01*
X58643271Y-49237448D01*
X58541814Y-49154186D01*
X58458552Y-49052729D01*
X58429222Y-49016991D01*
X58419652Y-48999087D01*
X58345557Y-48860467D01*
X58328384Y-48803853D01*
X58294037Y-48690627D01*
X58276641Y-48514000D01*
X58294037Y-48337373D01*
X58345557Y-48167534D01*
X58345557Y-48167533D01*
X58429221Y-48011011D01*
X58429222Y-48011009D01*
X58458552Y-47975271D01*
X58541814Y-47873814D01*
X58643271Y-47790552D01*
X58679009Y-47761222D01*
X58696913Y-47751652D01*
X58835533Y-47677557D01*
X58892147Y-47660384D01*
X59005373Y-47626037D01*
X59071557Y-47619519D01*
X59137740Y-47613000D01*
X59226260Y-47613000D01*
X59292442Y-47619518D01*
X59292442Y-47619518D01*
G37*
G36*
X33395228Y-45409703D02*
X33550100Y-45473853D01*
X33689481Y-45566985D01*
X33808015Y-45685519D01*
X33901147Y-45824900D01*
X33965297Y-45979772D01*
X33998000Y-46144184D01*
X33998000Y-46311816D01*
X33965297Y-46476228D01*
X33901147Y-46631100D01*
X33808015Y-46770481D01*
X33689481Y-46889015D01*
X33550100Y-46982147D01*
X33395228Y-47046297D01*
X33230816Y-47079000D01*
X33063184Y-47079000D01*
X32898772Y-47046297D01*
X32743900Y-46982147D01*
X32604519Y-46889015D01*
X32485985Y-46770481D01*
X32392853Y-46631100D01*
X32328703Y-46476228D01*
X32296000Y-46311816D01*
X32296000Y-46144184D01*
X32328703Y-45979772D01*
X32392853Y-45824900D01*
X32485985Y-45685519D01*
X32604519Y-45566985D01*
X32743900Y-45473853D01*
X32898772Y-45409703D01*
X33063184Y-45377000D01*
X33230816Y-45377000D01*
X33395228Y-45409703D01*
X33395228Y-45409703D01*
G37*
G36*
X43473821Y-45389313D02*
X43473824Y-45389314D01*
X43473825Y-45389314D01*
X43634239Y-45437975D01*
X43634241Y-45437976D01*
X43634244Y-45437977D01*
X43782078Y-45516995D01*
X43911659Y-45623341D01*
X44018005Y-45752922D01*
X44097023Y-45900756D01*
X44097024Y-45900759D01*
X44097025Y-45900761D01*
X44145686Y-46061175D01*
X44145687Y-46061179D01*
X44162117Y-46228000D01*
X44145687Y-46394821D01*
X44145686Y-46394824D01*
X44145686Y-46394825D01*
X44120993Y-46476228D01*
X44097023Y-46555244D01*
X44018005Y-46703078D01*
X43911659Y-46832659D01*
X43782078Y-46939005D01*
X43634244Y-47018023D01*
X43634241Y-47018024D01*
X43634239Y-47018025D01*
X43473825Y-47066686D01*
X43473824Y-47066686D01*
X43473821Y-47066687D01*
X43348804Y-47079000D01*
X43265196Y-47079000D01*
X43140179Y-47066687D01*
X43140176Y-47066686D01*
X43140175Y-47066686D01*
X42979761Y-47018025D01*
X42979759Y-47018024D01*
X42979756Y-47018023D01*
X42831922Y-46939005D01*
X42702341Y-46832659D01*
X42595995Y-46703078D01*
X42516977Y-46555244D01*
X42493008Y-46476228D01*
X42468314Y-46394825D01*
X42468314Y-46394824D01*
X42468313Y-46394821D01*
X42451883Y-46228000D01*
X42468313Y-46061179D01*
X42468314Y-46061175D01*
X42516975Y-45900761D01*
X42516976Y-45900759D01*
X42516977Y-45900756D01*
X42595995Y-45752922D01*
X42702341Y-45623341D01*
X42831922Y-45516995D01*
X42979756Y-45437977D01*
X42979759Y-45437976D01*
X42979761Y-45437975D01*
X43140175Y-45389314D01*
X43140176Y-45389314D01*
X43140179Y-45389313D01*
X43265196Y-45377000D01*
X43348804Y-45377000D01*
X43473821Y-45389313D01*
X43473821Y-45389313D01*
G37*
G36*
X46095228Y-45409703D02*
X46250100Y-45473853D01*
X46389481Y-45566985D01*
X46508015Y-45685519D01*
X46601147Y-45824900D01*
X46665297Y-45979772D01*
X46698000Y-46144184D01*
X46698000Y-46311816D01*
X46665297Y-46476228D01*
X46601147Y-46631100D01*
X46508015Y-46770481D01*
X46389481Y-46889015D01*
X46250100Y-46982147D01*
X46095228Y-47046297D01*
X45930816Y-47079000D01*
X45763184Y-47079000D01*
X45598772Y-47046297D01*
X45443900Y-46982147D01*
X45304519Y-46889015D01*
X45185985Y-46770481D01*
X45092853Y-46631100D01*
X45028703Y-46476228D01*
X44996000Y-46311816D01*
X44996000Y-46144184D01*
X45028703Y-45979772D01*
X45092853Y-45824900D01*
X45185985Y-45685519D01*
X45304519Y-45566985D01*
X45443900Y-45473853D01*
X45598772Y-45409703D01*
X45763184Y-45377000D01*
X45930816Y-45377000D01*
X46095228Y-45409703D01*
X46095228Y-45409703D01*
G37*
G36*
X56173821Y-45389313D02*
X56173824Y-45389314D01*
X56173825Y-45389314D01*
X56334239Y-45437975D01*
X56334241Y-45437976D01*
X56334244Y-45437977D01*
X56482078Y-45516995D01*
X56611659Y-45623341D01*
X56718005Y-45752922D01*
X56797023Y-45900756D01*
X56797024Y-45900759D01*
X56797025Y-45900761D01*
X56845686Y-46061175D01*
X56845687Y-46061179D01*
X56862117Y-46228000D01*
X56845687Y-46394821D01*
X56845686Y-46394824D01*
X56845686Y-46394825D01*
X56820993Y-46476228D01*
X56797023Y-46555244D01*
X56718005Y-46703078D01*
X56611659Y-46832659D01*
X56482078Y-46939005D01*
X56334244Y-47018023D01*
X56334241Y-47018024D01*
X56334239Y-47018025D01*
X56173825Y-47066686D01*
X56173824Y-47066686D01*
X56173821Y-47066687D01*
X56048804Y-47079000D01*
X55965196Y-47079000D01*
X55840179Y-47066687D01*
X55840176Y-47066686D01*
X55840175Y-47066686D01*
X55679761Y-47018025D01*
X55679759Y-47018024D01*
X55679756Y-47018023D01*
X55531922Y-46939005D01*
X55402341Y-46832659D01*
X55295995Y-46703078D01*
X55216977Y-46555244D01*
X55193008Y-46476228D01*
X55168314Y-46394825D01*
X55168314Y-46394824D01*
X55168313Y-46394821D01*
X55151883Y-46228000D01*
X55168313Y-46061179D01*
X55168314Y-46061175D01*
X55216975Y-45900761D01*
X55216976Y-45900759D01*
X55216977Y-45900756D01*
X55295995Y-45752922D01*
X55402341Y-45623341D01*
X55531922Y-45516995D01*
X55679756Y-45437977D01*
X55679759Y-45437976D01*
X55679761Y-45437975D01*
X55840175Y-45389314D01*
X55840176Y-45389314D01*
X55840179Y-45389313D01*
X55965196Y-45377000D01*
X56048804Y-45377000D01*
X56173821Y-45389313D01*
X56173821Y-45389313D01*
G37*
G36*
X60083000Y-46875000D02*
X58281000Y-46875000D01*
X58281000Y-45073000D01*
X60083000Y-45073000D01*
X60083000Y-46875000D01*
X60083000Y-46875000D01*
G37*
M02*
